<svg width="6709" height="1064" viewBox="0 0 6709 1064" fill="none" xmlns="http://www.w3.org/2000/svg">
<rect x="0.5" y="0.5" width="6708" height="1063" rx="4.5" stroke="#9747FF" stroke-dasharray="10 5"/>
<rect x="3407" y="20" width="1024" height="1024" fill="#302C41"/>
<path fill-rule="evenodd" clip-rule="evenodd" d="M4161.37 548.656C4197.08 548.656 4223 522.759 4223 487.085V385.936H4198.21L4196.36 394.505L4196.18 395.327L4195.53 394.788C4188.08 388.607 4178.36 385.602 4165.82 385.602C4134.43 385.602 4108.89 411.978 4108.89 444.408C4108.89 476.837 4134.43 503.214 4165.82 503.214C4173.75 503.214 4181.37 501.587 4188.46 498.385L4189.53 497.906L4189.16 499.01C4185.22 510.748 4174.58 518.307 4161.41 518.744C4160.85 518.761 4160.31 518.769 4159.8 518.769C4154.68 518.769 4146.98 517.99 4139.22 511.218L4137.74 509.934L4119.53 530.635L4120.84 531.936C4132.41 543.425 4149.97 548.656 4161.38 548.656H4161.37ZM4168.46 472.531C4153.9 472.531 4142.07 459.92 4142.07 444.416C4142.07 428.912 4153.9 416.302 4168.46 416.302C4183.01 416.302 4194.84 428.912 4194.84 444.416C4194.84 459.92 4183.01 472.531 4168.46 472.531Z" fill="#FBFAFB"/>
<path fill-rule="evenodd" clip-rule="evenodd" d="M4041.1 548.63C4076.79 548.63 4102.7 522.742 4102.7 487.085V385.961H4077.95L4076.1 394.514L4075.91 395.37L4075.23 394.813C4067.78 388.641 4058.07 385.636 4045.54 385.636C4014.15 385.636 3988.62 412.004 3988.62 444.416C3988.62 476.829 4014.15 503.197 4045.54 503.197C4053.46 503.197 4061.07 501.57 4068.17 498.368L4069.28 497.863L4068.89 499.019C4064.94 510.765 4054.31 518.333 4041.11 518.761C4040.56 518.778 4040.02 518.786 4039.51 518.786C4034.39 518.786 4026.68 517.999 4018.91 511.227L4017.44 509.96L3999.27 530.635L4000.57 531.919C4012.15 543.4 4029.69 548.63 4041.1 548.63ZM4048.18 472.557C4033.62 472.557 4021.77 459.938 4021.77 444.416C4021.77 428.895 4033.62 416.276 4048.18 416.276C4062.74 416.276 4074.59 428.895 4074.59 444.416C4074.59 459.938 4062.74 472.557 4048.18 472.557Z" fill="#FBFAFB"/>
<path fill-rule="evenodd" clip-rule="evenodd" d="M3733.99 462.42L3728.31 466.179C3720.04 471.658 3710.44 474.56 3700.53 474.56C3672.72 474.56 3650.09 451.873 3650.09 423.998C3650.09 396.123 3672.72 373.436 3700.53 373.436C3710.44 373.436 3720.04 376.33 3728.31 381.818L3733.99 385.576L3748.65 360.381L3743.72 356.991C3730.2 347.71 3714.39 342.805 3698 342.805C3653.33 342.796 3617 379.224 3617 423.998C3617 468.773 3653.33 505.191 3698 505.191C3714.39 505.191 3730.2 500.286 3743.72 490.997L3748.65 487.607L3733.99 462.412V462.42Z" fill="#FBFAFB"/>
<path fill-rule="evenodd" clip-rule="evenodd" d="M3848.5 397.596C3839.77 389.531 3827.22 384.985 3811.02 386.235C3802.47 386.894 3794.22 391.321 3790.93 394.908V341.35L3757.5 347.162V503.471H3790.93V445.675C3790.28 422.611 3798.94 417.055 3811.97 417.055C3825 417.055 3831.75 425.668 3831.75 444.125V503.411H3863.79V438.552C3863.79 419.546 3858.25 406.619 3848.49 397.596" fill="#FBFAFB"/>
<path fill-rule="evenodd" clip-rule="evenodd" d="M3926.29 385.268C3894.82 385.268 3870.17 411.756 3870.17 445.564C3870.17 479.371 3896.26 505.859 3928.34 505.859C3958.26 505.859 3973.77 484.2 3976.45 480.073L3956.62 466.384C3949.32 474.354 3940.28 477.77 3928.3 477.103C3923.01 476.811 3917.76 475.056 3913.5 472.171C3908.84 468.995 3905.58 464.646 3904.09 459.595L3903.76 458.457H3981.31C3981.56 456.582 3982.18 451.428 3982.18 445.572C3982.18 411.764 3957.63 385.276 3926.3 385.276L3926.29 385.268ZM3900.8 436.651L3900.89 435.675C3901.58 428.587 3904.76 422.123 3909.85 417.466C3914.71 413.014 3920.83 410.557 3927.07 410.557C3939.44 410.557 3953.06 419.375 3953.95 435.71L3954 436.651H3900.8Z" fill="#FBFAFB"/>
<path d="M3670.66 710.428C3688.75 710.428 3705.61 703.374 3705.61 685.729C3705.61 646.014 3619.9 669.326 3619.9 612.172C3619.9 582.277 3643.31 565.746 3673.36 565.746C3691.59 565.746 3711.13 571.833 3725.57 583.048L3715.21 599.237C3704.64 590.864 3687.93 585.744 3674.53 585.744C3657.61 585.744 3642.2 593.843 3642.2 610.306C3642.2 649.336 3728.26 625.391 3728.26 683.58C3728.26 715.205 3702.77 730.701 3671.42 730.701C3650.63 730.701 3631.71 723.92 3615.2 710.976L3625.7 694.436C3638.69 704.743 3654.43 710.419 3670.67 710.419L3670.66 710.428Z" fill="#FBFAFB"/>
<path d="M3762.8 676.868V728.415H3740.78V568.168L3762.8 563.811V657.349H3768.67L3806.73 615.623H3834.15L3787.67 666.689L3838.23 728.415H3810.88L3768.75 676.868H3762.81H3762.8Z" fill="#FBFAFB"/>
<path d="M3846.56 584.409C3846.56 576.336 3853.09 569.795 3861.15 569.795C3869.2 569.795 3875.73 576.336 3875.73 584.409C3875.73 592.482 3869.2 599.023 3861.15 599.023C3853.09 599.023 3846.56 592.482 3846.56 584.409ZM3850.1 615.631H3872.13V728.423H3850.1V615.631Z" fill="#FBFAFB"/>
<path d="M3892.69 568.168L3914.65 563.811V696.799C3914.65 705.308 3916.18 709.812 3922.52 713.056L3919.63 730.701C3905.54 730.701 3892.69 722.396 3892.69 704.683V568.168Z" fill="#FBFAFB"/>
<path d="M3935.19 568.168L3957.15 563.811V696.799C3957.15 705.308 3958.67 709.812 3965.02 713.056L3962.12 730.701C3948.03 730.701 3935.19 722.396 3935.19 704.683V568.168Z" fill="#FBFAFB"/>
<path d="M4014.44 712.02C4025.15 712.02 4037.23 708.63 4037.23 697.629C4037.23 673.067 3977.07 688.494 3977.07 647.119C3977.07 624.218 3995.45 613.354 4018.03 613.354C4031.7 613.354 4044.89 617.369 4055.67 625.322L4046.76 640.064C4039.09 634.945 4028.39 631.692 4019.13 631.692C4009.19 631.692 3998.62 635.424 3998.62 645.603C3998.62 669.891 4059.11 655.5 4059.11 696.602C4059.11 720.128 4039.29 730.718 4015.33 730.718C3998.34 730.718 3986.6 725.393 3972.78 715.222L3983.22 700.968C3992.75 707.748 4002.35 712.037 4014.43 712.037L4014.44 712.02Z" fill="#FBFAFB"/>
<rect x="4536" y="20" width="1024" height="1024" rx="100" fill="#302C41"/>
<path fill-rule="evenodd" clip-rule="evenodd" d="M5290.37 548.656C5326.08 548.656 5352 522.759 5352 487.085V385.936H5327.21L5325.36 394.505L5325.18 395.327L5324.53 394.788C5317.08 388.607 5307.36 385.602 5294.82 385.602C5263.43 385.602 5237.89 411.978 5237.89 444.408C5237.89 476.837 5263.43 503.214 5294.82 503.214C5302.75 503.214 5310.37 501.587 5317.46 498.385L5318.53 497.906L5318.16 499.01C5314.22 510.748 5303.58 518.307 5290.41 518.744C5289.85 518.761 5289.31 518.769 5288.8 518.769C5283.68 518.769 5275.98 517.99 5268.22 511.218L5266.74 509.934L5248.53 530.635L5249.84 531.936C5261.41 543.425 5278.97 548.656 5290.38 548.656H5290.37ZM5297.46 472.531C5282.9 472.531 5271.07 459.92 5271.07 444.416C5271.07 428.912 5282.9 416.302 5297.46 416.302C5312.01 416.302 5323.84 428.912 5323.84 444.416C5323.84 459.92 5312.01 472.531 5297.46 472.531Z" fill="#FBFAFB"/>
<path fill-rule="evenodd" clip-rule="evenodd" d="M5170.1 548.63C5205.79 548.63 5231.7 522.742 5231.7 487.085V385.961H5206.95L5205.1 394.514L5204.91 395.37L5204.23 394.813C5196.78 388.641 5187.07 385.636 5174.54 385.636C5143.15 385.636 5117.62 412.004 5117.62 444.416C5117.62 476.829 5143.15 503.197 5174.54 503.197C5182.46 503.197 5190.07 501.57 5197.17 498.368L5198.28 497.863L5197.89 499.019C5193.94 510.765 5183.31 518.333 5170.11 518.761C5169.56 518.778 5169.02 518.786 5168.51 518.786C5163.39 518.786 5155.68 517.999 5147.91 511.227L5146.44 509.96L5128.27 530.635L5129.57 531.919C5141.15 543.4 5158.69 548.63 5170.1 548.63ZM5177.18 472.557C5162.62 472.557 5150.77 459.938 5150.77 444.416C5150.77 428.895 5162.62 416.276 5177.18 416.276C5191.74 416.276 5203.59 428.895 5203.59 444.416C5203.59 459.938 5191.74 472.557 5177.18 472.557Z" fill="#FBFAFB"/>
<path fill-rule="evenodd" clip-rule="evenodd" d="M4862.99 462.42L4857.31 466.179C4849.04 471.658 4839.44 474.56 4829.53 474.56C4801.72 474.56 4779.09 451.873 4779.09 423.998C4779.09 396.123 4801.72 373.436 4829.53 373.436C4839.44 373.436 4849.04 376.33 4857.31 381.818L4862.99 385.576L4877.65 360.381L4872.72 356.991C4859.2 347.71 4843.39 342.805 4827 342.805C4782.33 342.796 4746 379.224 4746 423.998C4746 468.773 4782.33 505.191 4827 505.191C4843.39 505.191 4859.2 500.286 4872.72 490.997L4877.65 487.607L4862.99 462.412V462.42Z" fill="#FBFAFB"/>
<path fill-rule="evenodd" clip-rule="evenodd" d="M4977.5 397.596C4968.77 389.531 4956.22 384.985 4940.02 386.235C4931.47 386.894 4923.22 391.321 4919.93 394.908V341.35L4886.5 347.162V503.471H4919.93V445.675C4919.28 422.611 4927.94 417.055 4940.97 417.055C4954 417.055 4960.75 425.668 4960.75 444.125V503.411H4992.79V438.552C4992.79 419.546 4987.25 406.619 4977.49 397.596" fill="#FBFAFB"/>
<path fill-rule="evenodd" clip-rule="evenodd" d="M5055.29 385.268C5023.82 385.268 4999.17 411.756 4999.17 445.564C4999.17 479.371 5025.26 505.859 5057.34 505.859C5087.26 505.859 5102.77 484.2 5105.45 480.073L5085.62 466.384C5078.32 474.354 5069.28 477.77 5057.3 477.103C5052.01 476.811 5046.76 475.056 5042.5 472.171C5037.84 468.995 5034.58 464.646 5033.09 459.595L5032.76 458.457H5110.31C5110.56 456.582 5111.18 451.428 5111.18 445.572C5111.18 411.764 5086.63 385.276 5055.3 385.276L5055.29 385.268ZM5029.8 436.651L5029.89 435.675C5030.58 428.587 5033.76 422.123 5038.85 417.466C5043.71 413.014 5049.83 410.557 5056.07 410.557C5068.44 410.557 5082.06 419.375 5082.95 435.71L5083 436.651H5029.8Z" fill="#FBFAFB"/>
<path d="M4799.66 710.428C4817.75 710.428 4834.61 703.374 4834.61 685.729C4834.61 646.014 4748.9 669.326 4748.9 612.172C4748.9 582.277 4772.31 565.746 4802.36 565.746C4820.59 565.746 4840.13 571.833 4854.57 583.048L4844.21 599.237C4833.64 590.864 4816.93 585.744 4803.53 585.744C4786.61 585.744 4771.2 593.843 4771.2 610.306C4771.2 649.336 4857.26 625.391 4857.26 683.58C4857.26 715.205 4831.77 730.701 4800.42 730.701C4779.63 730.701 4760.71 723.92 4744.2 710.976L4754.7 694.436C4767.69 704.743 4783.43 710.419 4799.67 710.419L4799.66 710.428Z" fill="#FBFAFB"/>
<path d="M4891.8 676.868V728.415H4869.78V568.168L4891.8 563.811V657.349H4897.67L4935.73 615.623H4963.15L4916.67 666.689L4967.23 728.415H4939.88L4897.75 676.868H4891.81H4891.8Z" fill="#FBFAFB"/>
<path d="M4975.56 584.409C4975.56 576.336 4982.09 569.795 4990.15 569.795C4998.2 569.795 5004.73 576.336 5004.73 584.409C5004.73 592.482 4998.2 599.023 4990.15 599.023C4982.09 599.023 4975.56 592.482 4975.56 584.409ZM4979.1 615.631H5001.13V728.423H4979.1V615.631Z" fill="#FBFAFB"/>
<path d="M5021.69 568.168L5043.65 563.811V696.799C5043.65 705.308 5045.17 709.812 5051.52 713.056L5048.63 730.701C5034.54 730.701 5021.69 722.396 5021.69 704.683V568.168Z" fill="#FBFAFB"/>
<path d="M5064.19 568.168L5086.15 563.811V696.799C5086.15 705.308 5087.67 709.812 5094.02 713.056L5091.12 730.701C5077.03 730.701 5064.19 722.396 5064.19 704.683V568.168Z" fill="#FBFAFB"/>
<path d="M5143.44 712.02C5154.15 712.02 5166.23 708.63 5166.23 697.629C5166.23 673.067 5106.07 688.494 5106.07 647.119C5106.07 624.218 5124.45 613.354 5147.03 613.354C5160.7 613.354 5173.89 617.369 5184.67 625.322L5175.76 640.064C5168.09 634.945 5157.39 631.692 5148.13 631.692C5138.19 631.692 5127.62 635.424 5127.62 645.603C5127.62 669.891 5188.11 655.5 5188.11 696.602C5188.11 720.128 5168.29 730.718 5144.33 730.718C5127.34 730.718 5115.6 725.393 5101.78 715.222L5112.22 700.968C5121.75 707.748 5131.35 712.037 5143.43 712.037L5143.44 712.02Z" fill="#FBFAFB"/>
<rect x="5665" y="20" width="1024" height="1024" rx="512" fill="#302C41"/>
<path fill-rule="evenodd" clip-rule="evenodd" d="M6419.37 548.656C6455.08 548.656 6481 522.759 6481 487.085V385.936H6456.21L6454.36 394.505L6454.18 395.327L6453.53 394.788C6446.08 388.607 6436.36 385.602 6423.82 385.602C6392.43 385.602 6366.89 411.978 6366.89 444.408C6366.89 476.837 6392.43 503.214 6423.82 503.214C6431.75 503.214 6439.37 501.587 6446.46 498.385L6447.53 497.906L6447.16 499.01C6443.22 510.748 6432.58 518.307 6419.41 518.744C6418.85 518.761 6418.31 518.769 6417.8 518.769C6412.68 518.769 6404.98 517.99 6397.22 511.218L6395.74 509.934L6377.53 530.635L6378.84 531.936C6390.41 543.425 6407.97 548.656 6419.38 548.656H6419.37ZM6426.46 472.531C6411.9 472.531 6400.07 459.92 6400.07 444.416C6400.07 428.912 6411.9 416.302 6426.46 416.302C6441.01 416.302 6452.84 428.912 6452.84 444.416C6452.84 459.92 6441.01 472.531 6426.46 472.531Z" fill="#FBFAFB"/>
<path fill-rule="evenodd" clip-rule="evenodd" d="M6299.1 548.63C6334.79 548.63 6360.7 522.742 6360.7 487.085V385.961H6335.95L6334.1 394.514L6333.91 395.37L6333.23 394.813C6325.78 388.641 6316.07 385.636 6303.54 385.636C6272.15 385.636 6246.62 412.004 6246.62 444.416C6246.62 476.829 6272.15 503.197 6303.54 503.197C6311.46 503.197 6319.07 501.57 6326.17 498.368L6327.28 497.863L6326.89 499.019C6322.94 510.765 6312.31 518.333 6299.11 518.761C6298.56 518.778 6298.02 518.786 6297.51 518.786C6292.39 518.786 6284.68 517.999 6276.91 511.227L6275.44 509.96L6257.27 530.635L6258.57 531.919C6270.15 543.4 6287.69 548.63 6299.1 548.63ZM6306.18 472.557C6291.62 472.557 6279.77 459.938 6279.77 444.416C6279.77 428.895 6291.62 416.276 6306.18 416.276C6320.74 416.276 6332.59 428.895 6332.59 444.416C6332.59 459.938 6320.74 472.557 6306.18 472.557Z" fill="#FBFAFB"/>
<path fill-rule="evenodd" clip-rule="evenodd" d="M5991.99 462.42L5986.31 466.179C5978.04 471.658 5968.44 474.56 5958.53 474.56C5930.72 474.56 5908.09 451.873 5908.09 423.998C5908.09 396.123 5930.72 373.436 5958.53 373.436C5968.44 373.436 5978.04 376.33 5986.31 381.818L5991.99 385.576L6006.65 360.381L6001.72 356.991C5988.2 347.71 5972.39 342.805 5956 342.805C5911.33 342.796 5875 379.224 5875 423.998C5875 468.773 5911.33 505.191 5956 505.191C5972.39 505.191 5988.2 500.286 6001.72 490.997L6006.65 487.607L5991.99 462.412V462.42Z" fill="#FBFAFB"/>
<path fill-rule="evenodd" clip-rule="evenodd" d="M6106.5 397.596C6097.77 389.531 6085.22 384.985 6069.02 386.235C6060.47 386.894 6052.22 391.321 6048.93 394.908V341.35L6015.5 347.162V503.471H6048.93V445.675C6048.28 422.611 6056.94 417.055 6069.97 417.055C6083 417.055 6089.75 425.668 6089.75 444.125V503.411H6121.79V438.552C6121.79 419.546 6116.25 406.619 6106.49 397.596" fill="#FBFAFB"/>
<path fill-rule="evenodd" clip-rule="evenodd" d="M6184.29 385.268C6152.82 385.268 6128.17 411.756 6128.17 445.564C6128.17 479.371 6154.26 505.859 6186.34 505.859C6216.26 505.859 6231.77 484.2 6234.45 480.073L6214.62 466.384C6207.32 474.354 6198.28 477.77 6186.3 477.103C6181.01 476.811 6175.76 475.056 6171.51 472.171C6166.84 468.995 6163.58 464.646 6162.09 459.595L6161.76 458.457H6239.31C6239.56 456.582 6240.18 451.428 6240.18 445.572C6240.18 411.764 6215.63 385.276 6184.3 385.276L6184.29 385.268ZM6158.8 436.651L6158.89 435.675C6159.58 428.587 6162.76 422.123 6167.85 417.466C6172.71 413.014 6178.83 410.557 6185.07 410.557C6197.44 410.557 6211.06 419.375 6211.95 435.71L6212 436.651H6158.8Z" fill="#FBFAFB"/>
<path d="M5928.66 710.428C5946.75 710.428 5963.61 703.374 5963.61 685.729C5963.61 646.014 5877.9 669.326 5877.9 612.172C5877.9 582.277 5901.31 565.746 5931.36 565.746C5949.59 565.746 5969.13 571.833 5983.57 583.048L5973.21 599.237C5962.64 590.864 5945.93 585.744 5932.53 585.744C5915.61 585.744 5900.2 593.843 5900.2 610.306C5900.2 649.336 5986.26 625.391 5986.26 683.58C5986.26 715.205 5960.77 730.701 5929.42 730.701C5908.63 730.701 5889.71 723.92 5873.2 710.976L5883.7 694.436C5896.69 704.743 5912.43 710.419 5928.67 710.419L5928.66 710.428Z" fill="#FBFAFB"/>
<path d="M6020.8 676.868V728.415H5998.78V568.168L6020.8 563.811V657.349H6026.67L6064.73 615.623H6092.15L6045.67 666.689L6096.23 728.415H6068.88L6026.75 676.868H6020.81H6020.8Z" fill="#FBFAFB"/>
<path d="M6104.56 584.409C6104.56 576.336 6111.09 569.795 6119.15 569.795C6127.2 569.795 6133.73 576.336 6133.73 584.409C6133.73 592.482 6127.2 599.023 6119.15 599.023C6111.09 599.023 6104.56 592.482 6104.56 584.409ZM6108.1 615.631H6130.13V728.423H6108.1V615.631Z" fill="#FBFAFB"/>
<path d="M6150.69 568.168L6172.65 563.811V696.799C6172.65 705.308 6174.17 709.812 6180.52 713.056L6177.63 730.701C6163.54 730.701 6150.69 722.396 6150.69 704.683V568.168Z" fill="#FBFAFB"/>
<path d="M6193.19 568.168L6215.15 563.811V696.799C6215.15 705.308 6216.67 709.812 6223.02 713.056L6220.12 730.701C6206.03 730.701 6193.19 722.396 6193.19 704.683V568.168Z" fill="#FBFAFB"/>
<path d="M6272.44 712.02C6283.15 712.02 6295.23 708.63 6295.23 697.629C6295.23 673.067 6235.07 688.494 6235.07 647.119C6235.07 624.218 6253.44 613.354 6276.03 613.354C6289.7 613.354 6302.89 617.369 6313.67 625.322L6304.76 640.064C6297.09 634.945 6286.39 631.692 6277.13 631.692C6267.19 631.692 6256.62 635.424 6256.62 645.603C6256.62 669.891 6317.11 655.5 6317.11 696.602C6317.11 720.128 6297.29 730.718 6273.33 730.718C6256.34 730.718 6244.6 725.393 6230.78 715.222L6241.22 700.968C6250.74 707.748 6260.35 712.037 6272.43 712.037L6272.44 712.02Z" fill="#FBFAFB"/>
<rect x="20" y="20.0002" width="1024" height="1024" fill="#EB7100"/>
<path fill-rule="evenodd" clip-rule="evenodd" d="M774.373 548.656C810.082 548.656 835.998 522.759 835.998 487.085V385.936H811.21L809.355 394.505L809.176 395.327L808.526 394.788C801.075 388.607 791.36 385.602 778.825 385.602C747.431 385.602 721.891 411.979 721.891 444.408C721.891 476.837 747.431 503.214 778.825 503.214C786.754 503.214 794.368 501.587 801.46 498.386L802.528 497.906L802.161 499.011C798.221 510.748 787.583 518.307 774.407 518.744C773.852 518.761 773.313 518.77 772.801 518.77C767.682 518.77 759.983 517.99 752.216 511.219L750.738 509.934L732.529 530.635L733.836 531.936C745.415 543.425 762.974 548.656 774.381 548.656H774.373ZM781.457 472.531C766.905 472.531 755.07 459.921 755.07 444.417C755.07 428.912 766.905 416.302 781.457 416.302C796.008 416.302 807.843 428.912 807.843 444.417C807.843 459.921 796.008 472.531 781.457 472.531Z" fill="#FBFAFB"/>
<path fill-rule="evenodd" clip-rule="evenodd" d="M654.096 548.631C689.788 548.631 715.696 522.742 715.696 487.085V385.961H690.95L689.096 394.514L688.908 395.37L688.233 394.814C680.781 388.641 671.075 385.636 658.539 385.636C627.154 385.636 601.622 412.004 601.622 444.417C601.622 476.829 627.154 503.197 658.539 503.197C666.46 503.197 674.074 501.57 681.166 498.368L682.277 497.863L681.892 499.019C677.945 510.765 667.306 518.333 654.113 518.761C653.558 518.778 653.019 518.787 652.507 518.787C647.388 518.787 639.681 517.999 631.905 511.227L630.444 509.96L612.269 530.635L613.568 531.919C625.146 543.4 642.689 548.631 654.096 548.631ZM661.18 472.557C646.619 472.557 634.768 459.938 634.768 444.417C634.768 428.895 646.619 416.276 661.18 416.276C675.74 416.276 687.592 428.895 687.592 444.417C687.592 459.938 675.74 472.557 661.18 472.557Z" fill="#FBFAFB"/>
<path fill-rule="evenodd" clip-rule="evenodd" d="M346.987 462.42L341.313 466.179C333.042 471.658 323.438 474.56 313.534 474.56C285.721 474.56 263.094 451.873 263.094 423.998C263.094 396.123 285.721 373.437 313.534 373.437C323.438 373.437 333.042 376.33 341.313 381.818L346.987 385.576L361.65 360.381L356.72 356.991C343.202 347.711 327.394 342.805 310.996 342.805C266.333 342.797 230 379.224 230 423.998C230 468.773 266.333 505.192 310.996 505.192C327.385 505.192 343.202 500.286 356.72 490.997L361.65 487.607L346.987 462.412V462.42Z" fill="#FBFAFB"/>
<path fill-rule="evenodd" clip-rule="evenodd" d="M461.496 397.596C452.772 389.531 440.22 384.986 424.019 386.235C415.465 386.895 407.22 391.321 403.93 394.908V341.35L370.502 347.163V503.471H403.93V445.675C403.28 422.611 411.936 417.055 424.967 417.055C437.998 417.055 444.748 425.668 444.748 444.125V503.411H476.791V438.552C476.791 419.547 471.246 406.619 461.488 397.596" fill="#FBFAFB"/>
<path fill-rule="evenodd" clip-rule="evenodd" d="M539.288 385.268C507.818 385.268 483.166 411.756 483.166 445.564C483.166 479.371 509.262 505.859 541.339 505.859C571.263 505.859 586.772 484.2 589.446 480.073L569.622 466.384C562.316 474.355 553.285 477.771 541.296 477.103C536.007 476.812 530.76 475.057 526.505 472.172C521.84 468.995 518.584 464.646 517.089 459.595L516.755 458.457H594.308C594.564 456.582 595.18 451.428 595.18 445.572C595.18 411.765 570.63 385.277 539.297 385.277L539.288 385.268ZM513.799 436.652L513.893 435.676C514.576 428.587 517.755 422.123 522.848 417.466C527.71 413.014 533.828 410.557 540.074 410.557C552.439 410.557 566.059 419.375 566.948 435.71L566.999 436.652H513.799Z" fill="#FBFAFB"/>
<path d="M283.657 710.428C301.755 710.428 318.605 703.374 318.605 685.729C318.605 646.015 232.901 669.326 232.901 612.173C232.901 582.277 256.313 565.746 286.357 565.746C304.592 565.746 324.134 571.833 338.566 583.048L328.209 599.237C317.639 590.864 300.926 585.745 287.528 585.745C270.609 585.745 255.203 593.843 255.203 610.306C255.203 649.336 341.257 625.391 341.257 683.581C341.257 715.205 315.768 730.701 284.417 730.701C263.628 730.701 244.71 723.92 228.201 710.976L238.702 694.436C251.691 704.744 267.43 710.42 283.665 710.42L283.657 710.428Z" fill="#FBFAFB"/>
<path d="M375.804 676.869V728.415H353.775V568.169L375.804 563.811V657.349H381.674L419.733 615.623H447.153L400.669 666.69L451.229 728.415H423.877L381.751 676.869H375.812H375.804Z" fill="#FBFAFB"/>
<path d="M459.56 584.409C459.56 576.336 466.089 569.795 474.146 569.795C482.204 569.795 488.732 576.336 488.732 584.409C488.732 592.482 482.204 599.023 474.146 599.023C466.089 599.023 459.56 592.482 459.56 584.409ZM463.098 615.631H485.126V728.423H463.098V615.631Z" fill="#FBFAFB"/>
<path d="M505.694 568.169L527.654 563.811V696.799C527.654 705.309 529.175 709.812 535.524 713.056L532.627 730.701C518.537 730.701 505.694 722.396 505.694 704.684V568.169Z" fill="#FBFAFB"/>
<path d="M548.187 568.169L570.147 563.811V696.799C570.147 705.309 571.668 709.812 578.017 713.056L575.12 730.701C561.03 730.701 548.187 722.396 548.187 704.684V568.169Z" fill="#FBFAFB"/>
<path d="M627.44 712.02C638.147 712.02 650.229 708.63 650.229 697.629C650.229 673.068 590.074 688.495 590.074 647.119C590.074 624.218 608.445 613.354 631.029 613.354C644.701 613.354 657.894 617.369 668.669 625.322L659.757 640.065C652.092 634.945 641.385 631.692 632.131 631.692C622.185 631.692 611.615 635.424 611.615 645.604C611.615 669.891 672.112 655.5 672.112 696.602C672.112 720.128 652.288 730.718 628.329 730.718C611.342 730.718 599.601 725.393 585.784 715.222L596.217 700.968C605.745 707.748 615.349 712.038 627.432 712.038L627.44 712.02Z" fill="#FBFAFB"/>
<rect x="1149" y="20.0002" width="1024" height="1024" rx="100" fill="#EB7100"/>
<path fill-rule="evenodd" clip-rule="evenodd" d="M1903.37 548.656C1939.08 548.656 1965 522.759 1965 487.085V385.936H1940.21L1938.36 394.505L1938.18 395.327L1937.53 394.788C1930.08 388.607 1920.36 385.602 1907.82 385.602C1876.43 385.602 1850.89 411.979 1850.89 444.408C1850.89 476.837 1876.43 503.214 1907.82 503.214C1915.75 503.214 1923.37 501.587 1930.46 498.386L1931.53 497.906L1931.16 499.011C1927.22 510.748 1916.58 518.307 1903.41 518.744C1902.85 518.761 1902.31 518.77 1901.8 518.77C1896.68 518.77 1888.98 517.99 1881.22 511.219L1879.74 509.934L1861.53 530.635L1862.84 531.936C1874.41 543.425 1891.97 548.656 1903.38 548.656H1903.37ZM1910.46 472.531C1895.9 472.531 1884.07 459.921 1884.07 444.417C1884.07 428.912 1895.9 416.302 1910.46 416.302C1925.01 416.302 1936.84 428.912 1936.84 444.417C1936.84 459.921 1925.01 472.531 1910.46 472.531Z" fill="#FBFAFB"/>
<path fill-rule="evenodd" clip-rule="evenodd" d="M1783.1 548.631C1818.79 548.631 1844.7 522.742 1844.7 487.085V385.961H1819.95L1818.1 394.514L1817.91 395.37L1817.23 394.814C1809.78 388.641 1800.07 385.636 1787.54 385.636C1756.15 385.636 1730.62 412.004 1730.62 444.417C1730.62 476.829 1756.15 503.197 1787.54 503.197C1795.46 503.197 1803.07 501.57 1810.17 498.368L1811.28 497.863L1810.89 499.019C1806.94 510.765 1796.31 518.333 1783.11 518.761C1782.56 518.778 1782.02 518.787 1781.51 518.787C1776.39 518.787 1768.68 517.999 1760.91 511.227L1759.44 509.96L1741.27 530.635L1742.57 531.919C1754.15 543.4 1771.69 548.631 1783.1 548.631ZM1790.18 472.557C1775.62 472.557 1763.77 459.938 1763.77 444.417C1763.77 428.895 1775.62 416.276 1790.18 416.276C1804.74 416.276 1816.59 428.895 1816.59 444.417C1816.59 459.938 1804.74 472.557 1790.18 472.557Z" fill="#FBFAFB"/>
<path fill-rule="evenodd" clip-rule="evenodd" d="M1475.99 462.42L1470.31 466.179C1462.04 471.658 1452.44 474.56 1442.53 474.56C1414.72 474.56 1392.09 451.873 1392.09 423.998C1392.09 396.123 1414.72 373.437 1442.53 373.437C1452.44 373.437 1462.04 376.33 1470.31 381.818L1475.99 385.576L1490.65 360.381L1485.72 356.991C1472.2 347.711 1456.39 342.805 1440 342.805C1395.33 342.797 1359 379.224 1359 423.998C1359 468.773 1395.33 505.192 1440 505.192C1456.39 505.192 1472.2 500.286 1485.72 490.997L1490.65 487.607L1475.99 462.412V462.42Z" fill="#FBFAFB"/>
<path fill-rule="evenodd" clip-rule="evenodd" d="M1590.5 397.596C1581.77 389.531 1569.22 384.986 1553.02 386.235C1544.47 386.895 1536.22 391.321 1532.93 394.908V341.35L1499.5 347.163V503.471H1532.93V445.675C1532.28 422.611 1540.94 417.055 1553.97 417.055C1567 417.055 1573.75 425.668 1573.75 444.125V503.411H1605.79V438.552C1605.79 419.547 1600.25 406.619 1590.49 397.596" fill="#FBFAFB"/>
<path fill-rule="evenodd" clip-rule="evenodd" d="M1668.29 385.268C1636.82 385.268 1612.17 411.756 1612.17 445.564C1612.17 479.371 1638.26 505.859 1670.34 505.859C1700.26 505.859 1715.77 484.2 1718.45 480.073L1698.62 466.384C1691.32 474.355 1682.28 477.771 1670.3 477.103C1665.01 476.812 1659.76 475.057 1655.5 472.172C1650.84 468.995 1647.58 464.646 1646.09 459.595L1645.76 458.457H1723.31C1723.56 456.582 1724.18 451.428 1724.18 445.572C1724.18 411.765 1699.63 385.277 1668.3 385.277L1668.29 385.268ZM1642.8 436.652L1642.89 435.676C1643.58 428.587 1646.76 422.123 1651.85 417.466C1656.71 413.014 1662.83 410.557 1669.07 410.557C1681.44 410.557 1695.06 419.375 1695.95 435.71L1696 436.652H1642.8Z" fill="#FBFAFB"/>
<path d="M1412.66 710.428C1430.75 710.428 1447.61 703.374 1447.61 685.729C1447.61 646.015 1361.9 669.326 1361.9 612.173C1361.9 582.277 1385.31 565.746 1415.36 565.746C1433.59 565.746 1453.13 571.833 1467.57 583.048L1457.21 599.237C1446.64 590.864 1429.93 585.745 1416.53 585.745C1399.61 585.745 1384.2 593.843 1384.2 610.306C1384.2 649.336 1470.26 625.391 1470.26 683.581C1470.26 715.205 1444.77 730.701 1413.42 730.701C1392.63 730.701 1373.71 723.92 1357.2 710.976L1367.7 694.436C1380.69 704.744 1396.43 710.42 1412.67 710.42L1412.66 710.428Z" fill="#FBFAFB"/>
<path d="M1504.8 676.869V728.415H1482.78V568.169L1504.8 563.811V657.349H1510.67L1548.73 615.623H1576.15L1529.67 666.69L1580.23 728.415H1552.88L1510.75 676.869H1504.81H1504.8Z" fill="#FBFAFB"/>
<path d="M1588.56 584.409C1588.56 576.336 1595.09 569.795 1603.15 569.795C1611.2 569.795 1617.73 576.336 1617.73 584.409C1617.73 592.482 1611.2 599.023 1603.15 599.023C1595.09 599.023 1588.56 592.482 1588.56 584.409ZM1592.1 615.631H1614.13V728.423H1592.1V615.631Z" fill="#FBFAFB"/>
<path d="M1634.69 568.169L1656.65 563.811V696.799C1656.65 705.309 1658.17 709.812 1664.52 713.056L1661.63 730.701C1647.54 730.701 1634.69 722.396 1634.69 704.684V568.169Z" fill="#FBFAFB"/>
<path d="M1677.19 568.169L1699.15 563.811V696.799C1699.15 705.309 1700.67 709.812 1707.02 713.056L1704.12 730.701C1690.03 730.701 1677.19 722.396 1677.19 704.684V568.169Z" fill="#FBFAFB"/>
<path d="M1756.44 712.02C1767.15 712.02 1779.23 708.63 1779.23 697.629C1779.23 673.068 1719.07 688.495 1719.07 647.119C1719.07 624.218 1737.45 613.354 1760.03 613.354C1773.7 613.354 1786.89 617.369 1797.67 625.322L1788.76 640.065C1781.09 634.945 1770.39 631.692 1761.13 631.692C1751.19 631.692 1740.62 635.424 1740.62 645.604C1740.62 669.891 1801.11 655.5 1801.11 696.602C1801.11 720.128 1781.29 730.718 1757.33 730.718C1740.34 730.718 1728.6 725.393 1714.78 715.222L1725.22 700.968C1734.75 707.748 1744.35 712.038 1756.43 712.038L1756.44 712.02Z" fill="#FBFAFB"/>
<rect x="2278" y="20.0002" width="1024" height="1024" rx="512" fill="#EB7100"/>
<path fill-rule="evenodd" clip-rule="evenodd" d="M3032.37 548.656C3068.08 548.656 3094 522.759 3094 487.085V385.936H3069.21L3067.36 394.505L3067.18 395.327L3066.53 394.788C3059.08 388.607 3049.36 385.602 3036.82 385.602C3005.43 385.602 2979.89 411.979 2979.89 444.408C2979.89 476.837 3005.43 503.214 3036.82 503.214C3044.75 503.214 3052.37 501.587 3059.46 498.386L3060.53 497.906L3060.16 499.011C3056.22 510.748 3045.58 518.307 3032.41 518.744C3031.85 518.761 3031.31 518.77 3030.8 518.77C3025.68 518.77 3017.98 517.99 3010.22 511.219L3008.74 509.934L2990.53 530.635L2991.84 531.936C3003.41 543.425 3020.97 548.656 3032.38 548.656H3032.37ZM3039.46 472.531C3024.9 472.531 3013.07 459.921 3013.07 444.417C3013.07 428.912 3024.9 416.302 3039.46 416.302C3054.01 416.302 3065.84 428.912 3065.84 444.417C3065.84 459.921 3054.01 472.531 3039.46 472.531Z" fill="#FBFAFB"/>
<path fill-rule="evenodd" clip-rule="evenodd" d="M2912.1 548.631C2947.79 548.631 2973.7 522.742 2973.7 487.085V385.961H2948.95L2947.1 394.514L2946.91 395.37L2946.23 394.814C2938.78 388.641 2929.07 385.636 2916.54 385.636C2885.15 385.636 2859.62 412.004 2859.62 444.417C2859.62 476.829 2885.15 503.197 2916.54 503.197C2924.46 503.197 2932.07 501.57 2939.17 498.368L2940.28 497.863L2939.89 499.019C2935.94 510.765 2925.31 518.333 2912.11 518.761C2911.56 518.778 2911.02 518.787 2910.51 518.787C2905.39 518.787 2897.68 517.999 2889.91 511.227L2888.44 509.96L2870.27 530.635L2871.57 531.919C2883.15 543.4 2900.69 548.631 2912.1 548.631ZM2919.18 472.557C2904.62 472.557 2892.77 459.938 2892.77 444.417C2892.77 428.895 2904.62 416.276 2919.18 416.276C2933.74 416.276 2945.59 428.895 2945.59 444.417C2945.59 459.938 2933.74 472.557 2919.18 472.557Z" fill="#FBFAFB"/>
<path fill-rule="evenodd" clip-rule="evenodd" d="M2604.99 462.42L2599.31 466.179C2591.04 471.658 2581.44 474.56 2571.53 474.56C2543.72 474.56 2521.09 451.873 2521.09 423.998C2521.09 396.123 2543.72 373.437 2571.53 373.437C2581.44 373.437 2591.04 376.33 2599.31 381.818L2604.99 385.576L2619.65 360.381L2614.72 356.991C2601.2 347.711 2585.39 342.805 2569 342.805C2524.33 342.797 2488 379.224 2488 423.998C2488 468.773 2524.33 505.192 2569 505.192C2585.39 505.192 2601.2 500.286 2614.72 490.997L2619.65 487.607L2604.99 462.412V462.42Z" fill="#FBFAFB"/>
<path fill-rule="evenodd" clip-rule="evenodd" d="M2719.5 397.596C2710.77 389.531 2698.22 384.986 2682.02 386.235C2673.47 386.895 2665.22 391.321 2661.93 394.908V341.35L2628.5 347.163V503.471H2661.93V445.675C2661.28 422.611 2669.94 417.055 2682.97 417.055C2696 417.055 2702.75 425.668 2702.75 444.125V503.411H2734.79V438.552C2734.79 419.547 2729.25 406.619 2719.49 397.596" fill="#FBFAFB"/>
<path fill-rule="evenodd" clip-rule="evenodd" d="M2797.29 385.268C2765.82 385.268 2741.17 411.756 2741.17 445.564C2741.17 479.371 2767.26 505.859 2799.34 505.859C2829.26 505.859 2844.77 484.2 2847.45 480.073L2827.62 466.384C2820.32 474.355 2811.28 477.771 2799.3 477.103C2794.01 476.812 2788.76 475.057 2784.5 472.172C2779.84 468.995 2776.58 464.646 2775.09 459.595L2774.76 458.457H2852.31C2852.56 456.582 2853.18 451.428 2853.18 445.572C2853.18 411.765 2828.63 385.277 2797.3 385.277L2797.29 385.268ZM2771.8 436.652L2771.89 435.676C2772.58 428.587 2775.76 422.123 2780.85 417.466C2785.71 413.014 2791.83 410.557 2798.07 410.557C2810.44 410.557 2824.06 419.375 2824.95 435.71L2825 436.652H2771.8Z" fill="#FBFAFB"/>
<path d="M2541.66 710.428C2559.75 710.428 2576.61 703.374 2576.61 685.729C2576.61 646.015 2490.9 669.326 2490.9 612.173C2490.9 582.277 2514.31 565.746 2544.36 565.746C2562.59 565.746 2582.13 571.833 2596.57 583.048L2586.21 599.237C2575.64 590.864 2558.93 585.745 2545.53 585.745C2528.61 585.745 2513.2 593.843 2513.2 610.306C2513.2 649.336 2599.26 625.391 2599.26 683.581C2599.26 715.205 2573.77 730.701 2542.42 730.701C2521.63 730.701 2502.71 723.92 2486.2 710.976L2496.7 694.436C2509.69 704.744 2525.43 710.42 2541.67 710.42L2541.66 710.428Z" fill="#FBFAFB"/>
<path d="M2633.8 676.869V728.415H2611.78V568.169L2633.8 563.811V657.349H2639.67L2677.73 615.623H2705.15L2658.67 666.69L2709.23 728.415H2681.88L2639.75 676.869H2633.81H2633.8Z" fill="#FBFAFB"/>
<path d="M2717.56 584.409C2717.56 576.336 2724.09 569.795 2732.15 569.795C2740.2 569.795 2746.73 576.336 2746.73 584.409C2746.73 592.482 2740.2 599.023 2732.15 599.023C2724.09 599.023 2717.56 592.482 2717.56 584.409ZM2721.1 615.631H2743.13V728.423H2721.1V615.631Z" fill="#FBFAFB"/>
<path d="M2763.69 568.169L2785.65 563.811V696.799C2785.65 705.309 2787.18 709.812 2793.52 713.056L2790.63 730.701C2776.54 730.701 2763.69 722.396 2763.69 704.684V568.169Z" fill="#FBFAFB"/>
<path d="M2806.19 568.169L2828.15 563.811V696.799C2828.15 705.309 2829.67 709.812 2836.02 713.056L2833.12 730.701C2819.03 730.701 2806.19 722.396 2806.19 704.684V568.169Z" fill="#FBFAFB"/>
<path d="M2885.44 712.02C2896.15 712.02 2908.23 708.63 2908.23 697.629C2908.23 673.068 2848.07 688.495 2848.07 647.119C2848.07 624.218 2866.45 613.354 2889.03 613.354C2902.7 613.354 2915.89 617.369 2926.67 625.322L2917.76 640.065C2910.09 634.945 2899.39 631.692 2890.13 631.692C2880.19 631.692 2869.62 635.424 2869.62 645.604C2869.62 669.891 2930.11 655.5 2930.11 696.602C2930.11 720.128 2910.29 730.718 2886.33 730.718C2869.34 730.718 2857.6 725.393 2843.78 715.222L2854.22 700.968C2863.75 707.748 2873.35 712.038 2885.43 712.038L2885.44 712.02Z" fill="#FBFAFB"/>
</svg>
