<svg width="529" height="100" viewBox="0 0 529 100" fill="none" xmlns="http://www.w3.org/2000/svg">
<path fill-rule="evenodd" clip-rule="evenodd" d="M262.216 100C279.416 100 291.9 87.5494 291.9 70.3984V21.769H279.96L279.066 25.8891L278.98 26.2842L278.667 26.0249C275.078 23.0532 270.398 21.6085 264.36 21.6085C249.238 21.6085 236.936 34.2896 236.936 49.8807C236.936 65.4717 249.238 78.1528 264.36 78.1528C268.18 78.1528 271.847 77.3708 275.263 75.8314L275.778 75.6009L275.601 76.1319C273.703 81.7748 268.579 85.4091 262.232 85.6191C261.965 85.6273 261.706 85.6314 261.459 85.6314C258.993 85.6314 255.285 85.2569 251.543 82.0012L250.831 81.3838L242.06 91.336L242.69 91.9617C248.267 97.4852 256.725 100 262.22 100H262.216ZM265.628 63.4014C258.619 63.4014 252.918 57.3387 252.918 49.8848C252.918 42.4309 258.619 36.3682 265.628 36.3682C272.637 36.3682 278.338 42.4309 278.338 49.8848C278.338 57.3387 272.637 63.4014 265.628 63.4014Z" fill="#EB7100"/>
<path fill-rule="evenodd" clip-rule="evenodd" d="M204.281 99.9876C221.473 99.9876 233.952 87.5411 233.952 70.3984V21.7813H222.033L221.139 25.8931L221.049 26.3047L220.724 26.0372C217.135 23.0696 212.459 21.6249 206.421 21.6249C191.303 21.6249 179.005 34.3019 179.005 49.8847C179.005 65.4675 191.303 78.1445 206.421 78.1445C210.236 78.1445 213.904 77.3625 217.32 75.8232L217.855 75.5803L217.67 76.136C215.768 81.783 210.644 85.4214 204.289 85.6272C204.021 85.6355 203.762 85.6396 203.515 85.6396C201.05 85.6396 197.337 85.2609 193.592 82.0052L192.888 81.3961L184.133 91.336L184.759 91.9534C190.336 97.4728 198.786 99.9876 204.281 99.9876ZM207.693 63.4137C200.679 63.4137 194.97 57.3469 194.97 49.8847C194.97 42.4226 200.679 36.3558 207.693 36.3558C214.706 36.3558 220.415 42.4226 220.415 49.8847C220.415 57.3469 214.706 63.4137 207.693 63.4137Z" fill="#EB7100"/>
<path fill-rule="evenodd" clip-rule="evenodd" d="M56.3508 58.5405L53.6179 60.3474C49.6337 62.9815 45.0074 64.3768 40.2371 64.3768C26.8398 64.3768 15.9409 53.4697 15.9409 40.0683C15.9409 26.6669 26.8398 15.7598 40.2371 15.7598C45.0074 15.7598 49.6337 17.151 53.6179 19.7893L56.3508 21.5961L63.4137 9.48303L61.0389 7.85313C54.5275 3.39149 46.9131 1.03308 39.0147 1.03308C17.5008 1.02897 0 18.5421 0 40.0683C0 61.5945 17.5008 79.1035 39.0147 79.1035C46.909 79.1035 54.5275 76.7451 61.0389 72.2794L63.4137 70.6495L56.3508 58.5364V58.5405Z" fill="#EB7100"/>
<path fill-rule="evenodd" clip-rule="evenodd" d="M111.508 27.3749C107.306 23.4977 101.259 21.3121 93.4556 21.9131C89.3356 22.23 85.3638 24.3579 83.7792 26.0825V0.333374L67.6777 3.12807V78.2762H83.7792V50.4898C83.4663 39.4015 87.6358 36.7303 93.9125 36.7303C100.189 36.7303 103.441 40.8709 103.441 49.7448V78.2474H118.875V47.0653C118.875 37.928 116.204 31.713 111.504 27.3749" fill="#EB7100"/>
<path fill-rule="evenodd" clip-rule="evenodd" d="M148.979 21.4479C133.82 21.4479 121.946 34.1825 121.946 50.4362C121.946 66.69 134.516 79.4246 149.967 79.4246C164.381 79.4246 171.851 69.0113 173.14 67.0275L163.591 60.4461C160.072 64.278 155.721 65.9203 149.947 65.5992C147.399 65.4593 144.872 64.6155 142.822 63.2285C140.575 61.7015 139.006 59.6106 138.286 57.1822L138.126 56.6348H175.482C175.605 55.7334 175.901 53.2556 175.901 50.4404C175.901 34.1867 164.076 21.4521 148.983 21.4521L148.979 21.4479ZM136.702 46.1516L136.747 45.6824C137.076 42.2744 138.607 39.1669 141.06 36.9279C143.402 34.7876 146.349 33.6063 149.358 33.6063C155.314 33.6063 161.874 37.8457 162.302 45.6988L162.327 46.1516H136.702Z" fill="#EB7100"/>
<path d="M341.295 70.4889C350.012 70.4889 358.129 67.0975 358.129 58.6146C358.129 39.5209 316.847 50.7285 316.847 23.2507C316.847 8.87799 328.124 0.930176 342.596 0.930176C351.379 0.930176 360.792 3.85658 367.744 9.24842L362.755 17.0316C357.664 13.0062 349.613 10.5449 343.159 10.5449C335.01 10.5449 327.589 14.4386 327.589 22.3535C327.589 41.1179 369.04 29.6057 369.04 57.5815C369.04 72.7856 356.763 80.2354 341.661 80.2354C331.647 80.2354 322.535 76.9756 314.583 70.7524L319.641 62.8004C325.897 67.756 333.479 70.4848 341.299 70.4848L341.295 70.4889Z" fill="#EB7100"/>
<path d="M385.681 54.3546V79.1365H375.07V2.095L385.681 0V44.9704H388.508L406.841 24.9094H420.049L397.658 49.4608L422.012 79.1365H408.837L388.546 54.3546H385.685H385.681Z" fill="#EB7100"/>
<path d="M426.025 9.90286C426.025 6.02156 429.169 2.87701 433.051 2.87701C436.932 2.87701 440.077 6.02156 440.077 9.90286C440.077 13.7842 436.932 16.9287 433.051 16.9287C429.169 16.9287 426.025 13.7842 426.025 9.90286ZM427.729 24.9136H438.34V79.1406H427.729V24.9136Z" fill="#EB7100"/>
<path d="M448.247 2.095L458.824 0V63.9364C458.824 68.0277 459.557 70.1926 462.615 71.7525L461.22 80.2354C454.433 80.2354 448.247 76.243 448.247 67.7272V2.095Z" fill="#EB7100"/>
<path d="M468.715 2.095L479.293 0V63.9364C479.293 68.0277 480.026 70.1926 483.084 71.7525L481.688 80.2354C474.901 80.2354 468.715 76.243 468.715 67.7272V2.095Z" fill="#EB7100"/>
<path d="M506.89 71.2545C512.047 71.2545 517.867 69.6246 517.867 64.3357C517.867 52.5272 488.891 59.944 488.891 40.0518C488.891 29.0418 497.74 23.8187 508.619 23.8187C515.204 23.8187 521.559 25.7491 526.749 29.5728L522.456 36.6603C518.764 34.199 513.607 32.635 509.15 32.635C504.359 32.635 499.267 34.4295 499.267 39.3233C499.267 51.0002 528.408 44.0813 528.408 63.8418C528.408 75.1523 518.859 80.2437 507.318 80.2437C499.136 80.2437 493.48 77.6836 486.825 72.7939L491.85 65.9409C496.44 69.2007 501.066 71.2628 506.886 71.2628L506.89 71.2545Z" fill="#EB7100"/>
</svg>
