<svg width="1024" height="1024" viewBox="0 0 1024 1024" fill="none" xmlns="http://www.w3.org/2000/svg">
<rect width="1024" height="1024" fill="#EB7100"/>
<path fill-rule="evenodd" clip-rule="evenodd" d="M754.373 528.656C790.082 528.656 815.998 502.759 815.998 467.085V365.936H791.21L789.355 374.505L789.176 375.327L788.526 374.788C781.075 368.607 771.36 365.602 758.825 365.602C727.431 365.602 701.891 391.978 701.891 424.408C701.891 456.837 727.431 483.214 758.825 483.214C766.754 483.214 774.368 481.587 781.46 478.385L782.528 477.906L782.161 479.01C778.221 490.748 767.583 498.307 754.407 498.744C753.852 498.761 753.313 498.769 752.801 498.769C747.682 498.769 739.983 497.99 732.216 491.218L730.738 489.934L712.529 510.635L713.836 511.936C725.415 523.425 742.974 528.656 754.381 528.656H754.373ZM761.457 452.531C746.905 452.531 735.07 439.92 735.07 424.416C735.07 408.912 746.905 396.302 761.457 396.302C776.008 396.302 787.843 408.912 787.843 424.416C787.843 439.92 776.008 452.531 761.457 452.531Z" fill="#FBFAFB"/>
<path fill-rule="evenodd" clip-rule="evenodd" d="M634.096 528.63C669.788 528.63 695.696 502.742 695.696 467.085V365.961H670.95L669.096 374.514L668.908 375.37L668.233 374.813C660.781 368.641 651.075 365.636 638.539 365.636C607.154 365.636 581.622 392.004 581.622 424.416C581.622 456.829 607.154 483.197 638.539 483.197C646.46 483.197 654.074 481.57 661.166 478.368L662.277 477.863L661.892 479.019C657.945 490.765 647.306 498.333 634.113 498.761C633.558 498.778 633.019 498.786 632.507 498.786C627.388 498.786 619.681 497.999 611.905 491.227L610.444 489.96L592.269 510.635L593.568 511.919C605.146 523.4 622.689 528.63 634.096 528.63ZM641.18 452.557C626.619 452.557 614.768 439.938 614.768 424.416C614.768 408.895 626.619 396.276 641.18 396.276C655.74 396.276 667.592 408.895 667.592 424.416C667.592 439.938 655.74 452.557 641.18 452.557Z" fill="#FBFAFB"/>
<path fill-rule="evenodd" clip-rule="evenodd" d="M326.987 442.42L321.313 446.179C313.042 451.658 303.438 454.56 293.534 454.56C265.721 454.56 243.094 431.873 243.094 403.998C243.094 376.123 265.721 353.436 293.534 353.436C303.438 353.436 313.042 356.33 321.313 361.818L326.987 365.576L341.65 340.381L336.72 336.991C323.202 327.71 307.394 322.805 290.996 322.805C246.333 322.796 210 359.224 210 403.998C210 448.773 246.333 485.191 290.996 485.191C307.385 485.191 323.202 480.286 336.72 470.997L341.65 467.607L326.987 442.412V442.42Z" fill="#FBFAFB"/>
<path fill-rule="evenodd" clip-rule="evenodd" d="M441.496 377.596C432.772 369.531 420.22 364.985 404.019 366.235C395.465 366.894 387.22 371.321 383.93 374.908V321.35L350.502 327.162V483.471H383.93V425.675C383.28 402.611 391.936 397.055 404.967 397.055C417.998 397.055 424.748 405.668 424.748 424.125V483.411H456.791V418.552C456.791 399.546 451.246 386.619 441.488 377.596" fill="#FBFAFB"/>
<path fill-rule="evenodd" clip-rule="evenodd" d="M519.288 365.268C487.818 365.268 463.166 391.756 463.166 425.564C463.166 459.371 489.262 485.859 521.339 485.859C551.263 485.859 566.772 464.2 569.446 460.073L549.622 446.384C542.316 454.354 533.285 457.77 521.296 457.103C516.007 456.811 510.76 455.056 506.505 452.171C501.84 448.995 498.584 444.646 497.089 439.595L496.755 438.457H574.308C574.564 436.582 575.18 431.428 575.18 425.572C575.18 391.764 550.63 365.276 519.297 365.276L519.288 365.268ZM493.799 416.651L493.893 415.675C494.576 408.587 497.755 402.123 502.848 397.466C507.71 393.014 513.828 390.557 520.074 390.557C532.439 390.557 546.059 399.375 546.948 415.71L546.999 416.651H493.799Z" fill="#FBFAFB"/>
<path d="M263.657 690.428C281.755 690.428 298.605 683.374 298.605 665.729C298.605 626.014 212.901 649.326 212.901 592.172C212.901 562.277 236.313 545.746 266.357 545.746C284.592 545.746 304.134 551.833 318.566 563.048L308.209 579.237C297.639 570.864 280.926 565.744 267.528 565.744C250.609 565.744 235.203 573.843 235.203 590.306C235.203 629.336 321.257 605.391 321.257 663.58C321.257 695.205 295.768 710.701 264.417 710.701C243.628 710.701 224.71 703.92 208.201 690.976L218.702 674.436C231.691 684.743 247.43 690.419 263.665 690.419L263.657 690.428Z" fill="#FBFAFB"/>
<path d="M355.804 656.868V708.415H333.775V548.168L355.804 543.811V637.349H361.674L399.733 595.623H427.153L380.669 646.689L431.229 708.415H403.877L361.751 656.868H355.812H355.804Z" fill="#FBFAFB"/>
<path d="M439.56 564.409C439.56 556.336 446.089 549.795 454.146 549.795C462.204 549.795 468.732 556.336 468.732 564.409C468.732 572.482 462.204 579.023 454.146 579.023C446.089 579.023 439.56 572.482 439.56 564.409ZM443.098 595.631H465.126V708.423H443.098V595.631Z" fill="#FBFAFB"/>
<path d="M485.694 548.168L507.654 543.811V676.799C507.654 685.308 509.175 689.812 515.524 693.056L512.627 710.701C498.537 710.701 485.694 702.396 485.694 684.683V548.168Z" fill="#FBFAFB"/>
<path d="M528.187 548.168L550.147 543.811V676.799C550.147 685.308 551.668 689.812 558.017 693.056L555.12 710.701C541.03 710.701 528.187 702.396 528.187 684.683V548.168Z" fill="#FBFAFB"/>
<path d="M607.44 692.02C618.147 692.02 630.229 688.63 630.229 677.629C630.229 653.067 570.074 668.494 570.074 627.119C570.074 604.218 588.445 593.354 611.029 593.354C624.701 593.354 637.894 597.369 648.669 605.322L639.757 620.064C632.092 614.945 621.385 611.692 612.131 611.692C602.185 611.692 591.615 615.424 591.615 625.603C591.615 649.891 652.112 635.5 652.112 676.602C652.112 700.128 632.288 710.718 608.329 710.718C591.342 710.718 579.601 705.393 565.784 695.222L576.217 680.968C585.745 687.748 595.349 692.037 607.432 692.037L607.44 692.02Z" fill="#FBFAFB"/>
</svg>
